# xmcd
#
# Track frame offsets:
#	150
#	15666
#	30418
#	46092
#	60712
#	74875
#	95995
#	114168
#	132912
#	147944
#	162384
#
# Disc length: 2332 seconds
# Revision: 0
# Processed by: cddbd v1.5.2PL0 Copyright (c) Steve Scherf et al.
# Submitted via: dBpowerAMP V12.0
#
DISCID=9a091a0b
DTITLE=Ten Cent Shooters - Sweet To Mama
DYEAR=1996
DGENRE=Blues
TTITLE0=Sweet to Mama
TTITLE1=Little Laura
TTITLE2=No No Blues
TTITLE3=Kentucky Blues
TTITLE4=You Gonna Quit Me
TTITLE5=Have A Good Time
TTITLE6=Casey Jones
TTITLE7=Bootlegger Blues
TTITLE8=Sloppy Drunk
TTITLE9=Big Road Blues
TTITLE10=Papa Wants A Cookie
EXTD=
EXTT0=
EXTT1=
EXTT2=
EXTT3=
EXTT4=
EXTT5=
EXTT6=
EXTT7=
EXTT8=
EXTT9=
EXTT10=
PLAYORDER=
